<?xml version="1.0" encoding="UTF-8" standalone="no"?>
<!-- Created with Inkscape (http://www.inkscape.org/) -->

<svg
   xmlns:dc="http://purl.org/dc/elements/1.1/"
   xmlns:cc="http://creativecommons.org/ns#"
   xmlns:rdf="http://www.w3.org/1999/02/22-rdf-syntax-ns#"
   xmlns:svg="http://www.w3.org/2000/svg"
   xmlns="http://www.w3.org/2000/svg"
   xmlns:sodipodi="http://sodipodi.sourceforge.net/DTD/sodipodi-0.dtd"
   xmlns:inkscape="http://www.inkscape.org/namespaces/inkscape"
   width="130mm"
   height="50mm"
   viewBox="0 0 130 50"
   version="1.1"
   id="svg8"
   inkscape:version="0.92.1 r15371"
   sodipodi:docname="1917.svg"
   inkscape:export-filename="/home/Documents/1917.png"
   inkscape:export-xdpi="72"
   inkscape:export-ydpi="72">
  <defs
     id="defs2" />
  <sodipodi:namedview
     id="base"
     pagecolor="#ffffff"
     bordercolor="#666666"
     borderopacity="1.0"
     inkscape:pageopacity="0.0"
     inkscape:pageshadow="2"
     inkscape:zoom="2.3131292"
     inkscape:cx="243.60939"
     inkscape:cy="81.203131"
     inkscape:document-units="mm"
     inkscape:current-layer="layer1"
     showgrid="false"
     inkscape:window-width="1920"
     inkscape:window-height="1051"
     inkscape:window-x="0"
     inkscape:window-y="0"
     inkscape:window-maximized="1" />
  <metadata
     id="metadata5">
    <rdf:RDF>
      <cc:Work
         rdf:about="">
        <dc:format>image/svg+xml</dc:format>
        <dc:type
           rdf:resource="http://purl.org/dc/dcmitype/StillImage" />
        <dc:title></dc:title>
      </cc:Work>
    </rdf:RDF>
  </metadata>
  <g
     inkscape:label="Layer 1"
     inkscape:groupmode="layer"
     id="layer1"
     transform="translate(0,-247)">
    <g
       transform="translate(354.6448,257.18698)"
       id="g4619"
       style="fill:#cccccc">
      <path
         d="m -347.0148,35.632562 v -8.3312 h 4.8768 V 4.4413619 h -6.4008 v -5.7403998 l 11.2776,-2.5908001 h 8.5344 v 31.1912 h 4.2672 v 8.3312 z"
         style="font-style:normal;font-variant:normal;font-weight:normal;font-stretch:normal;font-size:192px;line-height:1.25;font-family:'Alfa Slab One';-inkscape-font-specification:'Alfa Slab One';letter-spacing:0px;word-spacing:0px;fill:#cccccc;fill-opacity:1;stroke:none;stroke-width:0.26458332"
         id="path4493-9"
         inkscape:connector-curvature="0" />
      <path
         d="m -306.24859,-4.601038 q 9.0424,0 13.462,4.87680008 4.4196,4.82599982 4.4196,14.83359992 0,10.9728 -5.1816,16.1036 -5.1308,5.1308 -14.1732,5.1308 -3.7084,0 -6.9088,-0.6604 -3.2004,-0.6096 -5.1308,-1.6256 v -10.2616 q 1.9304,0.8636 4.4196,1.4224 2.4892,0.508 5.2832,0.508 7.2644,0 7.2644,-5.3848 v -0.5588 q -3.2512,1.27 -7.0104,1.27 -5.8928,0 -9.1948,-3.1496 -3.2512,-3.2004 -3.2512,-8.8900001 0,-6.7563998 4.1656,-10.1599998 4.1656,-3.4544001 11.8364,-3.4544001 z m -3.4544,13.4111999 q 0,2.0320001 0.8636,3.1496001 0.9144,1.1176 2.7432,1.1176 1.7272,0 3.302,-0.6604 V 8.3529619 q 0,-2.032 -0.8636,-2.9464 -0.8636,-0.9652 -2.5908,-0.9652 -1.7272,0 -2.5908,1.0668 -0.8636,1.0668 -0.8636,3.302 z"
         style="font-style:normal;font-variant:normal;font-weight:normal;font-stretch:normal;font-size:192px;line-height:1.25;font-family:'Alfa Slab One';-inkscape-font-specification:'Alfa Slab One';letter-spacing:0px;word-spacing:0px;fill:#cccccc;fill-opacity:1;stroke:none;stroke-width:0.26458332"
         id="path4495"
         inkscape:connector-curvature="0" />
      <path
         d="m -285.30073,35.632562 v -8.3312 h 4.8768 V 4.4413619 h -6.4008 v -5.7403998 l 11.2776,-2.5908001 h 8.5344 v 31.1912 h 4.2672 v 8.3312 z"
         style="font-style:normal;font-variant:normal;font-weight:normal;font-stretch:normal;font-size:192px;line-height:1.25;font-family:'Alfa Slab One';-inkscape-font-specification:'Alfa Slab One';letter-spacing:0px;word-spacing:0px;fill:#cccccc;fill-opacity:1;stroke:none;stroke-width:0.26458332"
         id="path4497"
         inkscape:connector-curvature="0" />
      <path
         d="m -254.84693,35.632562 q 0,-4.5212 1.8796,-10.0076 1.9304,-5.4864 4.826,-10.6172 2.8956,-5.1816001 5.842,-9.0424001 h -7.5692 v 4.6736001 h -10.668 v -14.5288 h 31.9024 v 7.7215999 q -2.794,4.1656 -5.5372,9.7536001 -2.6924,5.5372 -4.5212,11.43 -1.778,5.842 -1.778,10.6172 z"
         style="font-style:normal;font-variant:normal;font-weight:normal;font-stretch:normal;font-size:192px;line-height:1.25;font-family:'Alfa Slab One';-inkscape-font-specification:'Alfa Slab One';letter-spacing:0px;word-spacing:0px;fill:#cccccc;fill-opacity:1;stroke:none;stroke-width:0.26458332"
         id="path4499"
         inkscape:connector-curvature="0" />
    </g>
    <g
       id="g4594"
       transform="translate(353.33943,256.05806)">
      <g
         transform="rotate(2.6833018,-305.30875,6.8721903)"
         id="g4568">
        <path
           inkscape:connector-curvature="0"
           style="font-style:normal;font-variant:normal;font-weight:normal;font-stretch:normal;font-size:192px;line-height:1.25;font-family:'Alfa Slab One';-inkscape-font-specification:'Alfa Slab One';letter-spacing:0px;word-spacing:0px;fill:#000000;fill-opacity:1;stroke:none;stroke-width:0.99999994"
           d="m -1157.4746,-17.390625 c -19.328,0 -34.2403,4.35264 -44.7363,13.0566406 -10.496,8.5759999 -15.7442,21.3763914 -15.7442,38.4003904 0,1.033109 0.028,2.044389 0.07,3.044922 l 72.3262,-53.878906 c -3.7787,-0.411447 -7.7473,-0.623047 -11.916,-0.623047 z"
           transform="scale(0.26458333)"
           id="path4564" />
        <path
           inkscape:connector-curvature="0"
           style="font-style:normal;font-variant:normal;font-weight:normal;font-stretch:normal;font-size:192px;line-height:1.25;font-family:'Alfa Slab One';-inkscape-font-specification:'Alfa Slab One';letter-spacing:0px;word-spacing:0px;fill:#000000;fill-opacity:1;stroke:none;stroke-width:0.99999994"
           d="m -1141.6758,-16.263672 38.5196,85.601563 13.1562,-6.40625 c 0.067,-1.907801 0.1094,-3.842618 0.1094,-5.826172 0,-25.216001 -5.5691,-43.902501 -16.7051,-56.0625002 -8.3882,-9.2559003 -20.0834,-15.0222738 -35.0801,-17.3066408 z"
           transform="scale(0.26458333)"
           id="path4562" />
      </g>
      <path
         inkscape:connector-curvature="0"
         id="path4558"
         d="m -276.34356,-3.916444 -11.10505,3.25251703 0.33931,5.73069927 6.38998,-0.378301 0.49205,8.3120717 7.31443,-4.113656 6.64455,12.97181 -1.55582,-26.2795105 z"
         style="font-style:normal;font-variant:normal;font-weight:normal;font-stretch:normal;font-size:192px;line-height:1.25;font-family:'Alfa Slab One';-inkscape-font-specification:'Alfa Slab One';letter-spacing:0px;word-spacing:0px;fill:#800000;fill-opacity:1;stroke:none;stroke-width:0.26458332" />
      <g
         transform="rotate(2.2498734,-244.58533,9.6567748)"
         id="g4576">
        <path
           inkscape:connector-curvature="0"
           style="font-style:normal;font-variant:normal;font-weight:normal;font-stretch:normal;font-size:192px;line-height:1.25;font-family:'Alfa Slab One';-inkscape-font-specification:'Alfa Slab One';letter-spacing:0px;word-spacing:0px;fill:#000000;fill-opacity:1;stroke:none;stroke-width:0.99999994"
           d="m -984.70508,-14.701172 v 54.91211 h 12.5332 l 25.68165,-54.91211 z"
           transform="scale(0.26458333)"
           id="path4556" />
        <path
           inkscape:connector-curvature="0"
           style="font-style:normal;font-variant:normal;font-weight:normal;font-stretch:normal;font-size:192px;line-height:1.25;font-family:'Alfa Slab One';-inkscape-font-specification:'Alfa Slab One';letter-spacing:0px;word-spacing:0px;fill:#000000;fill-opacity:1;stroke:none;stroke-width:0.99999994"
           d="m -939.04102,-14.701172 5.53516,37.248047 h 17.72852 c -4.88009,6.394589 -9.73185,13.522935 -14.55664,21.355469 l 6.50586,43.794922 40.17968,-39.171875 c 6.4511,-12.897937 12.95719,-24.259108 19.51953,-34.042969 v -29.183594 z"
           transform="scale(0.26458333)"
           id="path4554" />
      </g>
      <path
         inkscape:connector-curvature="0"
         id="path4552"
         d="m -303.91746,-1.8466241 -18.22031,14.6678991 c 0.54082,2.29337 1.59673,4.160622 3.1718,5.598536 2.27874,2.015457 5.38097,2.949391 9.30672,2.801643 2.50436,-0.09425 4.82311,-0.60536 6.9572,-1.532944 l 0.021,0.558743 c 0.13502,3.587327 -2.217,5.471935 -7.05651,5.654073 -1.86134,0.07005 -3.62774,-0.0329 -5.29877,-0.308916 -1.67228,-0.30986 -3.16207,-0.728512 -4.46974,-1.255438 l 0.38594,10.254647 c 1.31149,0.628454 3.04109,1.10575 5.18847,1.43162 2.14865,0.359712 4.45803,0.492594 6.92854,0.399614 6.02401,-0.226717 10.68086,-2.113095 13.97033,-5.659852 2.69973,-2.882296 4.2121,-7.006349 4.5371,-12.371408 l -4.2547,2.27364 z"
         style="font-style:normal;font-variant:normal;font-weight:normal;font-stretch:normal;font-size:192px;line-height:1.25;font-family:'Alfa Slab One';-inkscape-font-specification:'Alfa Slab One';letter-spacing:0px;word-spacing:0px;fill:#800000;fill-opacity:1;stroke:none;stroke-width:0.26458332" />
      <path
         id="path4548"
         transform="scale(0.26458333)"
         d="m -1157.4746,16.787109 c 4.352,0 7.615,1.214485 9.791,3.646485 2.176,2.304 3.2637,6.016719 3.2637,11.136718 v 15.359376 c -3.968,1.663998 -8.1265,2.496093 -12.4785,2.496093 -4.608,0 -8.0652,-1.406656 -10.3692,-4.222656 -2.176,-2.816 -3.2636,-6.784297 -3.2636,-11.904297 0,-5.632 1.0876,-9.792469 3.2636,-12.480469 2.176,-2.688 5.441,-4.03125 9.793,-4.03125 z"
         style="font-style:normal;font-variant:normal;font-weight:normal;font-stretch:normal;font-size:192px;line-height:1.25;font-family:'Alfa Slab One';-inkscape-font-specification:'Alfa Slab One';letter-spacing:0px;word-spacing:0px;fill:#ffffff;fill-opacity:1;stroke:none;stroke-width:0.99999994"
         inkscape:connector-curvature="0" />
      <path
         inkscape:connector-curvature="0"
         id="path4560"
         d="m -337.16683,-3.8528284 -11.31423,2.4268128 -0.0832,5.7401318 6.40049,0.092774 -0.1287,8.8796628 13.50265,-6.2216164 0.15647,-10.7940725 z"
         style="font-style:normal;font-variant:normal;font-weight:normal;font-stretch:normal;font-size:192px;line-height:1.25;font-family:'Alfa Slab One';-inkscape-font-specification:'Alfa Slab One';letter-spacing:0px;word-spacing:0px;fill:#800000;fill-opacity:1;stroke:none;stroke-width:0.26458332" />
      <path
         id="path4546"
         transform="scale(0.26458333)"
         d="m -1242.4316,31.15625 -15.0586,35.458984 15.0586,-11.21875 z"
         style="font-style:normal;font-variant:normal;font-weight:normal;font-stretch:normal;font-size:192px;line-height:1.25;font-family:'Alfa Slab One';-inkscape-font-specification:'Alfa Slab One';letter-spacing:0px;word-spacing:0px;fill:#800000;fill-opacity:1;stroke:none;stroke-width:0.99999994"
         inkscape:connector-curvature="0" />
      <path
         inkscape:connector-curvature="0"
         id="path4544"
         d="m -332.31874,10.696107 -9.97984,5.047959 0.25786,11.686366 -4.87604,0.107591 0.18379,8.329247 22.54972,-0.497563 -0.18379,-8.329247 -4.26587,0.09413 -0.22215,-10.067736 -8.71728,6.79717 z"
         style="font-style:normal;font-variant:normal;font-weight:normal;font-stretch:normal;font-size:192px;line-height:1.25;font-family:'Alfa Slab One';-inkscape-font-specification:'Alfa Slab One';letter-spacing:0px;word-spacing:0px;fill:#000000;fill-opacity:1;stroke:none;stroke-width:0.26458332" />
      <path
         inkscape:connector-curvature="0"
         id="path4542"
         d="m -273.8157,11.837253 -6.55315,3.099018 -0.13936,12.236186 -4.87691,-0.05555 -0.0949,8.330734 22.55374,0.25688 0.0946,-8.304899 -2.30887,4.793361 z"
         style="font-style:normal;font-variant:normal;font-weight:normal;font-stretch:normal;font-size:192px;line-height:1.25;font-family:'Alfa Slab One';-inkscape-font-specification:'Alfa Slab One';letter-spacing:0px;word-spacing:0px;fill:#000000;fill-opacity:1;stroke:none;stroke-width:0.26458332" />
      <g
         transform="rotate(-6.4380672,-245.65214,17.997066)"
         id="g4572">
        <path
           inkscape:connector-curvature="0"
           style="font-style:normal;font-variant:normal;font-weight:normal;font-stretch:normal;font-size:192px;line-height:1.25;font-family:'Alfa Slab One';-inkscape-font-specification:'Alfa Slab One';letter-spacing:0px;word-spacing:0px;fill:#800000;fill-opacity:1;stroke:none;stroke-width:0.99999994"
           d="m -944.74805,0 -18.80664,40.210938 h 19.16992 V 22.546875 h 2.98633 z"
           transform="scale(0.26458333)"
           id="path4550" />
        <path
           inkscape:connector-curvature="0"
           style="font-style:normal;font-variant:normal;font-weight:normal;font-stretch:normal;font-size:192px;line-height:1.25;font-family:'Alfa Slab One';-inkscape-font-specification:'Alfa Slab One';letter-spacing:0px;word-spacing:0px;fill:#800000;fill-opacity:1;stroke:none;stroke-width:0.99999994"
           d="m -936.64062,54.580078 c -0.40587,0.7153 -0.81133,1.416999 -1.2168,2.142578 -7.296,12.928 -13.37624,26.302954 -18.24024,40.126953 -4.736,13.824001 -7.10351,26.432221 -7.10351,37.824221 h 54.33594 c 0,-12.032 2.2407,-25.40695 6.7207,-40.126955 2.77943,-8.955943 5.96213,-17.746654 9.5332,-26.376953 l -36.69531,35.775388 z"
           transform="scale(0.26458333)"
           id="path4493" />
      </g>
    </g>
  </g>
</svg>
