<?xml version="1.0" encoding="UTF-8" standalone="no"?>
<!-- Created with Inkscape (http://www.inkscape.org/) -->

<svg
   xmlns:dc="http://purl.org/dc/elements/1.1/"
   xmlns:cc="http://creativecommons.org/ns#"
   xmlns:rdf="http://www.w3.org/1999/02/22-rdf-syntax-ns#"
   xmlns:svg="http://www.w3.org/2000/svg"
   xmlns="http://www.w3.org/2000/svg"
   xmlns:sodipodi="http://sodipodi.sourceforge.net/DTD/sodipodi-0.dtd"
   xmlns:inkscape="http://www.inkscape.org/namespaces/inkscape"
   width="300"
   height="40"
   viewBox="0 0 79.374998 10.583334"
   version="1.1"
   id="svg8"
   inkscape:version="0.92.4 (5da689c313, 2019-01-14)"
   sodipodi:docname="persons-1917.svg">
  <defs
     id="defs2" />
  <sodipodi:namedview
     id="base"
     pagecolor="#ffffff"
     bordercolor="#666666"
     borderopacity="1.0"
     inkscape:pageopacity="0.0"
     inkscape:pageshadow="2"
     inkscape:zoom="4.3666667"
     inkscape:cx="150"
     inkscape:cy="20"
     inkscape:document-units="mm"
     inkscape:current-layer="layer1"
     showgrid="false"
     inkscape:window-width="1920"
     inkscape:window-height="1051"
     inkscape:window-x="0"
     inkscape:window-y="0"
     inkscape:window-maximized="1"
     units="px" />
  <metadata
     id="metadata5">
    <rdf:RDF>
      <cc:Work
         rdf:about="">
        <dc:format>image/svg+xml</dc:format>
        <dc:type
           rdf:resource="http://purl.org/dc/dcmitype/StillImage" />
        <dc:title></dc:title>
      </cc:Work>
    </rdf:RDF>
  </metadata>
  <g
     inkscape:label="Layer 1"
     inkscape:groupmode="layer"
     id="layer1"
     transform="translate(0,-286.41665)">
    <g
       aria-label="Persons-1917"
       transform="matrix(0.26458333,0,0,0.26458333,-23.050937,162.39138)"
       style="font-style:normal;font-variant:normal;font-weight:normal;font-stretch:normal;font-size:40px;line-height:1.25;font-family:Carlito;-inkscape-font-specification:Carlito;letter-spacing:0px;word-spacing:0px;fill:#000000;fill-opacity:1;stroke:none"
       id="flowRoot815">
      <path
         d="m 102.65227,471.73695 q 3.48,0 5.8,1.68 3.12,2.24 3.12,7 0,3.44 -1.92,5.88 -2.08,2.6 -5.8,2.6 -1.96,0 -3.56,-0.92 -1.600004,-0.96 -1.880004,-3.24 l 0.36,-0.12 q 0.44,1.72 2.040004,2.4 1.08,0.48 1.92,0.48 3.28,0 4.76,-2.56 1.08,-1.88 1.08,-4.48 0,-4.16 -2.32,-6 -1.76,-1.44 -4.48,-1.44 -0.64,0 -1.12,0.08 -0.44,0.04 -4.000004,0.64 v 23.72 q 0.04,1.08 0.8,1.8 0.76,0.72 1.76,0.72 h 0.52 v 0.4 h -8.76 v -0.4 h 0.52 q 1,0 1.76,-0.72 0.76,-0.72 0.8,-1.8 v -21.64 q 0,-1.04 -0.6,-1.6 -0.6,-0.6 -1.56,-0.6 -0.2,0 -0.4,0.04 l -0.48,0.04 -0.08,-0.4 q 2.08,-0.2 5.56,-0.76 3.520004,-0.6 4.360004,-0.68 0.84,-0.12 1.8,-0.12 z"
         style="font-style:normal;font-variant:normal;font-weight:normal;font-stretch:normal;font-family:'Cinzel Decorative';-inkscape-font-specification:'Cinzel Decorative'"
         id="path824"
         inkscape:connector-curvature="0" />
      <path
         d="m 115.86727,499.97695 q 1.04,0 1.76,-0.72 0.76,-0.76 0.8,-1.8 v -22.4 q 0,-0.96 -0.76,-1.6 -0.76,-0.68 -1.8,-0.68 h -0.48 l -0.04,-0.4 h 11.72 q 1.24,0 2.68,-0.24 1.48,-0.24 2.08,-0.48 v 5.04 h -0.4 v -0.72 q 0,-0.96 -0.68,-1.64 -0.64,-0.68 -1.56,-0.72 h -8.16 v 12.36 h 6.76 q 0.8,-0.04 1.36,-0.6 0.56,-0.56 0.56,-1.4 v -0.56 h 0.4 v 6.32 h -0.4 v -0.6 q 0,-0.8 -0.56,-1.36 -0.52,-0.56 -1.32,-0.6 h -6.8 v 11.96 h 5.72 q 2.96,0 4.52,-1.32 1.56,-1.32 2.6,-3.92 h 0.4 l -2.32,6.48 h -16.6 v -0.4 z"
         style="font-style:normal;font-variant:normal;font-weight:normal;font-stretch:normal;font-family:'Cinzel Decorative';-inkscape-font-specification:'Cinzel Decorative'"
         id="path826"
         inkscape:connector-curvature="0" />
      <path
         d="m 146.24352,473.61695 h -2.56 v 23.84 q 0,1.04 0.72,1.8 0.76,0.72 1.84,0.72 h 0.48 l 0.04,0.4 h -8.76 v -0.4 h 0.52 q 1.04,0 1.76,-0.72 0.76,-0.72 0.8,-1.76 v -22.2 q -0.04,-1.04 -0.8,-1.76 -0.72,-0.76 -1.76,-0.76 h -0.52 v -0.4 h 10.8 q 3.64,0 5.72,2.04 2.08,2 2.08,5.24 0,3.2 -2,5.56 -1.96,2.32 -4.8,2.32 0.6,0.28 1.4,1.12 0.84,0.8 1.48,1.68 3.44,4.92 4.48,6.08 1.04,1.12 1.48,1.56 0.44,0.4 0.96,0.8 0.52,0.4 1.04,0.64 1.16,0.56 2.48,0.56 v 0.4 h -2.2 q -1.72,0 -3.2,-0.6 -1.48,-0.64 -2.24,-1.28 -0.72,-0.68 -1.28,-1.28 -0.52,-0.64 -2.96,-4.16 -2.44,-3.52 -2.84,-4 -0.4,-0.52 -0.84,-1 -1.28,-1.36 -2.56,-1.36 v -0.4 q 0.32,0.04 0.84,0.04 0.52,0 1.28,-0.04 4.96,-0.12 6.24,-4.16 0.24,-0.8 0.24,-1.48 0,-0.72 0,-0.92 -0.08,-2.68 -1.4,-4.32 -1.32,-1.64 -3.56,-1.76 -0.96,-0.04 -2.4,-0.04 z"
         style="font-style:normal;font-variant:normal;font-weight:normal;font-stretch:normal;font-family:'Cinzel Decorative';-inkscape-font-specification:'Cinzel Decorative'"
         id="path828"
         inkscape:connector-curvature="0" />
      <path
         d="m 164.37164,498.73695 q -0.12,-0.56 -0.12,-2.16 0,-1.6 0.6,-3.4 h 0.36 q -0.04,0.44 -0.04,0.88 0,2.44 1.48,4.08 1.48,1.6 3.92,1.6 2.52,0 4.12,-1.52 1.64,-1.52 1.64,-3.8 0,-2.32 -1.56,-3.76 l -7.68,-7.12 q -2.16,-2 -2.16,-4.84 0,-2.84 1.88,-4.84 1.92,-2.04 5.16,-2.04 1.52,0 3.44,0.4 h 1.56 v 4.92 h -0.36 q 0,-1.88 -1.32,-3 -1.28,-1.12 -3.32,-1.12 -2.04,0 -3.44,1.36 -1.36,1.36 -1.36,3.4 0,2.04 1.6,3.52 l 7.88,7.28 q 2,1.84 2,5.04 0,3.2 -2.04,5.28 -2.04,2.04 -5.44,2.04 -1.76,0 -3.76,-0.56 -1.96,-0.52 -3.04,-1.64 z"
         style="font-style:normal;font-variant:normal;font-weight:normal;font-stretch:normal;font-family:'Cinzel Decorative';-inkscape-font-specification:'Cinzel Decorative'"
         id="path830"
         inkscape:connector-curvature="0" />
      <path
         d="m 186.87414,475.85695 q 4.28,-4.04 11.08,-4.04 6.84,0 11.12,4.04 4.28,4 4.28,10.52 0,6.52 -4.28,10.56 -4.28,4 -11.12,4 -6.8,0 -11.08,-4 -4.28,-4.04 -4.28,-10.56 0,-6.52 4.28,-10.52 z m 2.16,20.2 q 3.4,3.68 8.92,3.68 5.52,0 8.88,-3.68 3.4,-3.68 3.4,-9.68 0,-6 -3.4,-9.68 -3.36,-3.68 -8.88,-3.68 -5.52,0 -8.92,3.68 -3.36,3.68 -3.36,9.68 0,6 3.36,9.68 z"
         style="font-style:normal;font-variant:normal;font-weight:normal;font-stretch:normal;font-family:'Cinzel Decorative';-inkscape-font-specification:'Cinzel Decorative'"
         id="path832"
         inkscape:connector-curvature="0" />
      <path
         d="m 246.02039,472.77695 q -1,0 -1.72,0.72 -0.72,0.68 -0.76,1.68 v 20.64 q 0,2.32 0.28,4.4 l 0.08,0.72 h -0.36 l -21.8,-23.28 v 19.92 q 0,1 0.72,1.72 0.72,0.68 1.72,0.68 h 0.76 v 0.4 h -8.24 v -0.4 h 0.76 q 1,0 1.72,-0.68 0.72,-0.72 0.72,-1.76 v -20.76 q 0,-2.44 -0.28,-4.36 l -0.08,-0.64 h 0.4 l 21.8,23.28 v -19.84 q -0.04,-1.04 -0.76,-1.72 -0.72,-0.72 -1.72,-0.72 h -0.76 v -0.4 h 8.24 v 0.4 z"
         style="font-style:normal;font-variant:normal;font-weight:normal;font-stretch:normal;font-family:'Cinzel Decorative';-inkscape-font-specification:'Cinzel Decorative'"
         id="path834"
         inkscape:connector-curvature="0" />
      <path
         d="m 251.01227,498.73695 q -0.12,-0.56 -0.12,-2.16 0,-1.6 0.6,-3.4 h 0.36 q -0.04,0.44 -0.04,0.88 0,2.44 1.48,4.08 1.48,1.6 3.92,1.6 2.52,0 4.12,-1.52 1.64,-1.52 1.64,-3.8 0,-2.32 -1.56,-3.76 l -7.68,-7.12 q -2.16,-2 -2.16,-4.84 0,-2.84 1.88,-4.84 1.92,-2.04 5.16,-2.04 1.52,0 3.44,0.4 h 1.56 v 4.92 h -0.36 q 0,-1.88 -1.32,-3 -1.28,-1.12 -3.32,-1.12 -2.04,0 -3.44,1.36 -1.36,1.36 -1.36,3.4 0,2.04 1.6,3.52 l 7.88,7.28 q 2,1.84 2,5.04 0,3.2 -2.04,5.28 -2.04,2.04 -5.44,2.04 -1.76,0 -3.76,-0.56 -1.96,-0.52 -3.04,-1.64 z"
         style="font-style:normal;font-variant:normal;font-weight:normal;font-stretch:normal;font-family:'Cinzel Decorative';-inkscape-font-specification:'Cinzel Decorative'"
         id="path836"
         inkscape:connector-curvature="0" />
      <path
         d="m 268.99477,488.69695 0.24,-0.88 h 12 l 0.24,0.88 -0.24,0.92 h -12 z"
         style="font-style:normal;font-variant:normal;font-weight:normal;font-stretch:normal;font-family:'Cinzel Decorative';-inkscape-font-specification:'Cinzel Decorative'"
         id="path838"
         inkscape:connector-curvature="0" />
      <path
         d="m 288.58914,497.81695 v -18.92 q 0,-0.88 -0.68,-1.48 -0.64,-0.64 -1.52,-0.64 h -0.84 v -0.4 h 8.64 v 0.4 h -0.84 q -0.88,0 -1.52,0.64 -0.64,0.64 -0.64,1.52 v 18.88 q 0,1.24 1.12,1.88 0.48,0.28 1.08,0.28 h 0.84 v 0.4 h -8.68 l 0.04,-0.4 h 0.84 q 0.88,0 1.52,-0.64 0.64,-0.64 0.64,-1.52 z"
         style="font-style:normal;font-variant:normal;font-weight:normal;font-stretch:normal;font-family:'Cinzel Decorative';-inkscape-font-specification:'Cinzel Decorative'"
         id="path840"
         inkscape:connector-curvature="0" />
      <path
         d="m 305.77914,492.57695 q -4.04,0 -5.88,-3.24 -1.04,-1.88 -1.04,-4.6 0,-3.88 2.32,-6.32 2.4,-2.52 6.36,-2.52 4,0 6.44,3.04 2.44,3 2.44,8.48 0,5.2 -2.08,9.68 -2.32,5.08 -6.4,7.28 -2.28,1.24 -4.96,1.48 l -0.12,-0.28 q 2.72,-0.76 4.8,-2.56 2.08,-1.76 3.32,-4.24 2.44,-4.84 2.44,-10.48 0,-11.2 -6.16,-11.2 -2.72,0 -4.08,2.08 -1.32,2.08 -1.32,5.12 0,3.16 1.4,5.04 1.44,1.84 3.88,1.84 1.76,0 3.28,-1 0.68,-0.44 1.24,-1.08 l 0.2,0.36 q -1.16,1.48 -2.8,2.32 -1.64,0.8 -3.28,0.8 z"
         style="font-style:normal;font-variant:normal;font-weight:normal;font-stretch:normal;font-family:'Cinzel Decorative';-inkscape-font-specification:'Cinzel Decorative'"
         id="path842"
         inkscape:connector-curvature="0" />
      <path
         d="m 324.76102,497.81695 v -18.92 q 0,-0.88 -0.68,-1.48 -0.64,-0.64 -1.52,-0.64 h -0.84 v -0.4 h 8.64 v 0.4 h -0.84 q -0.88,0 -1.52,0.64 -0.64,0.64 -0.64,1.52 v 18.88 q 0,1.24 1.12,1.88 0.48,0.28 1.08,0.28 h 0.84 v 0.4 h -8.68 l 0.04,-0.4 h 0.84 q 0.88,0 1.52,-0.64 0.64,-0.64 0.64,-1.52 z"
         style="font-style:normal;font-variant:normal;font-weight:normal;font-stretch:normal;font-family:'Cinzel Decorative';-inkscape-font-specification:'Cinzel Decorative'"
         id="path844"
         inkscape:connector-curvature="0" />
      <path
         d="m 337.59102,478.57695 q -1.16,0 -1.84,0.6 -0.68,0.56 -1.16,1.8 h -0.4 l 1.12,-4.52 h 16 l -4.32,11.52 q -1.2,3.24 -2.96,8.4 -1.72,5.12 -2.4,8 0,0 -2.8,0 4.52,-11.36 6.52,-16.56 l 3.52,-9.24 z"
         style="font-style:normal;font-variant:normal;font-weight:normal;font-stretch:normal;font-family:'Cinzel Decorative';-inkscape-font-specification:'Cinzel Decorative'"
         id="path846"
         inkscape:connector-curvature="0" />
    </g>
  </g>
</svg>
