<?xml version="1.0" encoding="UTF-8" standalone="no"?>
<!-- Created with Inkscape (http://www.inkscape.org/) -->

<svg
   xmlns:dc="http://purl.org/dc/elements/1.1/"
   xmlns:cc="http://creativecommons.org/ns#"
   xmlns:rdf="http://www.w3.org/1999/02/22-rdf-syntax-ns#"
   xmlns:svg="http://www.w3.org/2000/svg"
   xmlns="http://www.w3.org/2000/svg"
   xmlns:sodipodi="http://sodipodi.sourceforge.net/DTD/sodipodi-0.dtd"
   xmlns:inkscape="http://www.inkscape.org/namespaces/inkscape"
   width="300"
   height="300"
   viewBox="0 0 79.374998 79.375005"
   version="1.1"
   id="svg8"
   inkscape:version="0.92.4 (5da689c313, 2019-01-14)"
   sodipodi:docname="favicon.svg">
  <defs
     id="defs2" />
  <sodipodi:namedview
     id="base"
     pagecolor="#ffffff"
     bordercolor="#666666"
     borderopacity="1.0"
     inkscape:pageopacity="0.0"
     inkscape:pageshadow="2"
     inkscape:zoom="1.0916667"
     inkscape:cx="149.08397"
     inkscape:cy="20"
     inkscape:document-units="mm"
     inkscape:current-layer="layer1"
     showgrid="false"
     inkscape:window-width="1920"
     inkscape:window-height="1051"
     inkscape:window-x="0"
     inkscape:window-y="0"
     inkscape:window-maximized="1"
     units="px" />
  <metadata
     id="metadata5">
    <rdf:RDF>
      <cc:Work
         rdf:about="">
        <dc:format>image/svg+xml</dc:format>
        <dc:type
           rdf:resource="http://purl.org/dc/dcmitype/StillImage" />
        <dc:title></dc:title>
      </cc:Work>
    </rdf:RDF>
  </metadata>
  <g
     inkscape:label="Layer 1"
     inkscape:groupmode="layer"
     id="layer1"
     transform="translate(0,-217.62498)">
    <g
       id="g918">
      <path
         d="m 8.977249,258.40381 v -32.55609 q 0,-1.51422 -1.2156486,-2.54665 -1.1441355,-1.10131 -2.7173294,-1.10131 H 3.5425902 V 221.5115 H 18.98845 v 0.68826 h -1.501681 q -1.573187,0 -2.717323,1.10131 -1.144142,1.10124 -1.144142,2.61546 v 32.48728 q 0,2.13368 2.002246,3.23492 0.858103,0.48191 1.930732,0.48191 h 1.501681 v 0.68827 H 3.5425902 l 0.071486,-0.68827 H 5.115757 q 1.5731871,0 2.7173226,-1.10131 1.1441423,-1.10124 1.1441423,-2.61545 z"
         style="font-style:normal;font-variant:normal;font-weight:normal;font-stretch:normal;font-size:40px;line-height:1.25;font-family:'Cinzel Decorative';-inkscape-font-specification:'Cinzel Decorative';letter-spacing:0px;word-spacing:0px;fill:#000000;fill-opacity:1;stroke:none;stroke-width:1.7538991"
         id="path840"
         inkscape:connector-curvature="0" />
      <path
         d="m 39.708071,249.3872 q -7.222372,0 -10.511766,-5.57514 -1.859226,-3.23498 -1.859226,-7.9153 0,-6.67645 4.147504,-10.87499 4.290516,-4.33622 11.369869,-4.33622 7.150857,0 11.51288,5.23098 4.36203,5.16216 4.36203,14.59175 0,8.94773 -3.718453,16.65661 -4.147497,8.74125 -11.441374,12.52682 -4.07599,2.13374 -8.867065,2.54671 l -0.214526,-0.48191 q 4.862581,-1.30772 8.581033,-4.40503 3.718446,-3.02849 5.935209,-7.29584 4.36203,-8.32834 4.36203,-18.03322 0,-19.27207 -11.012329,-19.27207 -4.862581,0 -7.293878,3.57908 -2.359784,3.57915 -2.359784,8.81013 0,5.43746 2.502803,8.67244 2.57431,3.16611 6.936333,3.16611 3.146381,0 5.863709,-1.7207 1.215642,-0.75714 2.216765,-1.85839 l 0.357565,0.61979 q -2.073752,2.54665 -5.005605,3.99205 -2.931849,1.3766 -5.863704,1.3766 z"
         style="font-style:normal;font-variant:normal;font-weight:normal;font-stretch:normal;font-size:40px;line-height:1.25;font-family:'Cinzel Decorative';-inkscape-font-specification:'Cinzel Decorative';letter-spacing:0px;word-spacing:0px;fill:#000000;fill-opacity:1;stroke:none;stroke-width:1.7538991"
         id="path842"
         inkscape:connector-curvature="0" />
    </g>
    <g
       id="g914"
       transform="matrix(1.2718209,0,0,1.1497721,-21.042599,-44.163543)"
       style="stroke:#ffffff;stroke-width:0.54699534;stroke-miterlimit:4;stroke-dasharray:none;stroke-opacity:1">
      <path
         d="m 35.811629,286.1517 v -25.14971 q 0,-1.16974 -1.065511,-1.9673 -1.002829,-0.85076 -2.38172,-0.85076 h -1.316216 v -0.53169 h 13.538223 v 0.53169 h -1.316217 q -1.378897,0 -2.381726,0.85076 -1.002829,0.85072 -1.002829,2.02045 v 25.09656 q 0,1.64827 1.754953,2.49898 0.752123,0.37228 1.692277,0.37228 h 1.316217 v 0.53169 H 31.048182 l 0.06266,-0.53169 h 1.316216 q 1.378891,0 2.381726,-0.85076 1.00283,-0.85072 1.00283,-2.02045 z"
         style="font-style:normal;font-variant:normal;font-weight:normal;font-stretch:normal;font-size:40px;line-height:1.25;font-family:'Cinzel Decorative';-inkscape-font-specification:'Cinzel Decorative';letter-spacing:0px;word-spacing:0px;fill:#000000;fill-opacity:1;stroke:#ffffff;stroke-width:0.54699534;stroke-miterlimit:4;stroke-dasharray:none;stroke-opacity:1"
         id="path844"
         inkscape:connector-curvature="0" />
      <path
         d="m 55.915262,260.57661 q -1.817628,0 -2.883138,0.79756 -1.065511,0.7444 -1.817634,2.39267 h -0.626768 l 1.754953,-6.00824 h 25.070787 l -6.769111,15.31313 q -1.880309,4.30682 -4.638097,11.16582 -2.695107,6.80581 -3.760618,10.63409 0,0 -4.387385,0 7.082493,-15.10041 10.216342,-22.01263 l 5.515571,-12.2824 z"
         style="font-style:normal;font-variant:normal;font-weight:normal;font-stretch:normal;font-size:40px;line-height:1.25;font-family:'Cinzel Decorative';-inkscape-font-specification:'Cinzel Decorative';letter-spacing:0px;word-spacing:0px;fill:#000000;fill-opacity:1;stroke:#ffffff;stroke-width:0.54699534;stroke-miterlimit:4;stroke-dasharray:none;stroke-opacity:1"
         id="path846"
         inkscape:connector-curvature="0" />
    </g>
  </g>
</svg>
