<?xml version="1.0" encoding="UTF-8" standalone="no"?>
<!-- Created with Inkscape (http://www.inkscape.org/) -->

<svg
   xmlns:dc="http://purl.org/dc/elements/1.1/"
   xmlns:cc="http://creativecommons.org/ns#"
   xmlns:rdf="http://www.w3.org/1999/02/22-rdf-syntax-ns#"
   xmlns:svg="http://www.w3.org/2000/svg"
   xmlns="http://www.w3.org/2000/svg"
   xmlns:sodipodi="http://sodipodi.sourceforge.net/DTD/sodipodi-0.dtd"
   xmlns:inkscape="http://www.inkscape.org/namespaces/inkscape"
   width="300"
   height="300"
   viewBox="0 0 79.374998 79.374999"
   version="1.1"
   id="svg8"
   inkscape:version="0.92.4 (5da689c313, 2019-01-14)"
   sodipodi:docname="favicon.svg"
   inkscape:export-filename="/home/Documents/1917.png"
   inkscape:export-xdpi="72"
   inkscape:export-ydpi="72">
  <defs
     id="defs2" />
  <sodipodi:namedview
     id="base"
     pagecolor="#ffffff"
     bordercolor="#666666"
     borderopacity="1.0"
     inkscape:pageopacity="0.0"
     inkscape:pageshadow="2"
     inkscape:zoom="2.3131292"
     inkscape:cx="205.37565"
     inkscape:cy="151.12386"
     inkscape:document-units="mm"
     inkscape:current-layer="layer1"
     showgrid="false"
     inkscape:window-width="1920"
     inkscape:window-height="1051"
     inkscape:window-x="0"
     inkscape:window-y="0"
     inkscape:window-maximized="1"
     units="px" />
  <metadata
     id="metadata5">
    <rdf:RDF>
      <cc:Work
         rdf:about="">
        <dc:format>image/svg+xml</dc:format>
        <dc:type
           rdf:resource="http://purl.org/dc/dcmitype/StillImage" />
        <dc:title></dc:title>
      </cc:Work>
    </rdf:RDF>
  </metadata>
  <g
     inkscape:label="Layer 1"
     inkscape:groupmode="layer"
     id="layer1"
     transform="translate(0,-217.625)">
    <g
       id="g1588"
       transform="translate(-2.2876658,-31.341022)">
      <path
         d="m 7.63,292.81954 v -8.3312 h 4.8768 v -22.86 H 6.106 v -5.7404 l 11.2776,-2.5908 h 8.5344 v 31.1912 h 4.2672 v 8.3312 z"
         style="font-style:normal;font-variant:normal;font-weight:normal;font-stretch:normal;font-size:192px;line-height:1.25;font-family:'Alfa Slab One';-inkscape-font-specification:'Alfa Slab One';letter-spacing:0px;word-spacing:0px;fill:#cccccc;fill-opacity:1;stroke:none;stroke-width:0.26458332"
         id="path4493-9"
         inkscape:connector-curvature="0" />
      <path
         d="m 48.39621,252.58594 q 9.0424,0 13.462,4.8768 4.4196,4.826 4.4196,14.8336 0,10.9728 -5.1816,16.1036 -5.1308,5.1308 -14.1732,5.1308 -3.7084,0 -6.9088,-0.6604 -3.2004,-0.6096 -5.1308,-1.6256 v -10.2616 q 1.9304,0.8636 4.4196,1.4224 2.4892,0.508 5.2832,0.508 7.2644,0 7.2644,-5.3848 v -0.5588 q -3.2512,1.27 -7.0104,1.27 -5.8928,0 -9.1948,-3.1496 -3.2512,-3.2004 -3.2512,-8.89 0,-6.7564 4.1656,-10.16 4.1656,-3.4544 11.8364,-3.4544 z m -3.4544,13.4112 q 0,2.032 0.8636,3.1496 0.9144,1.1176 2.7432,1.1176 1.7272,0 3.302,-0.6604 v -4.064 q 0,-2.032 -0.8636,-2.9464 -0.8636,-0.9652 -2.5908,-0.9652 -1.7272,0 -2.5908,1.0668 -0.8636,1.0668 -0.8636,3.302 z"
         style="font-style:normal;font-variant:normal;font-weight:normal;font-stretch:normal;font-size:192px;line-height:1.25;font-family:'Alfa Slab One';-inkscape-font-specification:'Alfa Slab One';letter-spacing:0px;word-spacing:0px;fill:#cccccc;fill-opacity:1;stroke:none;stroke-width:0.26458332"
         id="path4495"
         inkscape:connector-curvature="0" />
      <g
         id="g1561">
        <g
           id="g4568"
           transform="rotate(2.6833018,-5595.1745,7678.2785)">
          <path
             id="path4564"
             transform="scale(0.26458333)"
             d="m -1157.4746,-17.390625 c -19.328,0 -34.2403,4.35264 -44.7363,13.0566406 -10.496,8.5759999 -15.7442,21.3763914 -15.7442,38.4003904 0,1.033109 0.028,2.044389 0.07,3.044922 l 72.3262,-53.878906 c -3.7787,-0.411447 -7.7473,-0.623047 -11.916,-0.623047 z"
             style="font-style:normal;font-variant:normal;font-weight:normal;font-stretch:normal;font-size:192px;line-height:1.25;font-family:'Alfa Slab One';-inkscape-font-specification:'Alfa Slab One';letter-spacing:0px;word-spacing:0px;fill:#000000;fill-opacity:1;stroke:none;stroke-width:0.99999994"
             inkscape:connector-curvature="0" />
          <path
             id="path4562"
             transform="scale(0.26458333)"
             d="m -1141.6758,-16.263672 38.5196,85.601563 13.1562,-6.40625 c 0.067,-1.907801 0.1094,-3.842618 0.1094,-5.826172 0,-25.216001 -5.5691,-43.902501 -16.7051,-56.0625002 -8.3882,-9.2559003 -20.0834,-15.0222738 -35.0801,-17.3066408 z"
             style="font-style:normal;font-variant:normal;font-weight:normal;font-stretch:normal;font-size:192px;line-height:1.25;font-family:'Alfa Slab One';-inkscape-font-specification:'Alfa Slab One';letter-spacing:0px;word-spacing:0px;fill:#000000;fill-opacity:1;stroke:none;stroke-width:0.99999994"
             inkscape:connector-curvature="0" />
        </g>
        <path
           style="font-style:normal;font-variant:normal;font-weight:normal;font-stretch:normal;font-size:192px;line-height:1.25;font-family:'Alfa Slab One';-inkscape-font-specification:'Alfa Slab One';letter-spacing:0px;word-spacing:0px;fill:#800000;fill-opacity:1;stroke:none;stroke-width:0.26458332"
           d="m 49.42197,254.21144 -18.22031,14.6679 c 0.54082,2.29336 1.59673,4.16062 3.1718,5.59853 2.27874,2.01546 5.38097,2.94939 9.30672,2.80164 2.50436,-0.0942 4.82311,-0.60536 6.9572,-1.53294 l 0.021,0.55874 c 0.13502,3.58733 -2.217,5.47194 -7.05651,5.65408 -1.86134,0.0701 -3.62774,-0.0329 -5.29877,-0.30892 -1.67228,-0.30986 -3.16207,-0.72851 -4.46974,-1.25544 l 0.38594,10.25465 c 1.31149,0.62845 3.04109,1.10575 5.18847,1.43162 2.14865,0.35971 4.45803,0.49259 6.92854,0.39961 6.02401,-0.22671 10.68086,-2.11309 13.97033,-5.65985 2.69973,-2.8823 4.2121,-7.00635 4.5371,-12.37141 l -4.2547,2.27364 z"
           id="path4552"
           inkscape:connector-curvature="0" />
        <path
           inkscape:connector-curvature="0"
           style="font-style:normal;font-variant:normal;font-weight:normal;font-stretch:normal;font-size:192px;line-height:1.25;font-family:'Alfa Slab One';-inkscape-font-specification:'Alfa Slab One';letter-spacing:0px;word-spacing:0px;fill:#ffffff;fill-opacity:1;stroke:none;stroke-width:0.26458332"
           d="m 47.090946,260.49965 c 1.151467,0 2.014802,0.32133 2.590535,0.9648 0.575734,0.6096 0.863521,1.59192 0.863521,2.94659 v 4.06383 c -1.049867,0.44027 -2.150136,0.66043 -3.301603,0.66043 -1.2192,0 -2.133918,-0.37218 -2.743518,-1.11725 -0.575733,-0.74506 -0.863494,-1.79501 -0.863494,-3.14968 0,-1.49013 0.287761,-2.59092 0.863494,-3.30212 0.575734,-0.7112 1.439598,-1.0666 2.591065,-1.0666 z"
           id="path4548" />
        <path
           style="font-style:normal;font-variant:normal;font-weight:normal;font-stretch:normal;font-size:192px;line-height:1.25;font-family:'Alfa Slab One';-inkscape-font-specification:'Alfa Slab One';letter-spacing:0px;word-spacing:0px;fill:#800000;fill-opacity:1;stroke:none;stroke-width:0.26458332"
           d="m 16.1726,252.20523 -11.31423,2.42681 -0.0832,5.74014 6.40049,0.0928 -0.1287,8.87966 13.50265,-6.22161 0.15647,-10.79408 z"
           id="path4560"
           inkscape:connector-curvature="0" />
        <path
           inkscape:connector-curvature="0"
           style="font-style:normal;font-variant:normal;font-weight:normal;font-stretch:normal;font-size:192px;line-height:1.25;font-family:'Alfa Slab One';-inkscape-font-specification:'Alfa Slab One';letter-spacing:0px;word-spacing:0px;fill:#800000;fill-opacity:1;stroke:none;stroke-width:0.26458332"
           d="m 24.61274,264.30148 -3.984255,9.38186 3.984255,-2.96829 z"
           id="path4546" />
        <path
           style="font-style:normal;font-variant:normal;font-weight:normal;font-stretch:normal;font-size:192px;line-height:1.25;font-family:'Alfa Slab One';-inkscape-font-specification:'Alfa Slab One';letter-spacing:0px;word-spacing:0px;fill:#000000;fill-opacity:1;stroke:none;stroke-width:0.26458332"
           d="m 21.02069,266.75417 -9.97984,5.04796 0.25786,11.68636 -4.87604,0.10759 0.18379,8.32925 22.54972,-0.49756 -0.18379,-8.32925 -4.26587,0.0941 -0.22215,-10.06774 -8.71728,6.79717 z"
           id="path4544"
           inkscape:connector-curvature="0" />
      </g>
    </g>
    <g
       id="g1601"
       transform="translate(-49.098336,1.005698)">
      <path
         d="m 69.34407,292.81954 v -8.3312 h 4.8768 v -22.86 h -6.4008 v -5.7404 l 11.2776,-2.5908 h 8.5344 v 31.1912 h 4.2672 v 8.3312 z"
         style="font-style:normal;font-variant:normal;font-weight:normal;font-stretch:normal;font-size:192px;line-height:1.25;font-family:'Alfa Slab One';-inkscape-font-specification:'Alfa Slab One';letter-spacing:0px;word-spacing:0px;fill:#cccccc;fill-opacity:1;stroke:none;stroke-width:0.26458332"
         id="path4497"
         inkscape:connector-curvature="0" />
      <path
         d="m 99.79787,292.81954 q 0,-4.5212 1.8796,-10.0076 1.9304,-5.4864 4.826,-10.6172 2.8956,-5.1816 5.842,-9.0424 h -7.5692 v 4.6736 h -10.668 v -14.5288 h 31.9024 v 7.7216 q -2.794,4.1656 -5.5372,9.7536 -2.6924,5.5372 -4.5212,11.43 -1.778,5.842 -1.778,10.6172 z"
         style="font-style:normal;font-variant:normal;font-weight:normal;font-stretch:normal;font-size:192px;line-height:1.25;font-family:'Alfa Slab One';-inkscape-font-specification:'Alfa Slab One';letter-spacing:0px;word-spacing:0px;fill:#cccccc;fill-opacity:1;stroke:none;stroke-width:0.26458332"
         id="path4499"
         inkscape:connector-curvature="0" />
      <g
         id="g1571">
        <path
           style="font-style:normal;font-variant:normal;font-weight:normal;font-stretch:normal;font-size:192px;line-height:1.25;font-family:'Alfa Slab One';-inkscape-font-specification:'Alfa Slab One';letter-spacing:0px;word-spacing:0px;fill:#800000;fill-opacity:1;stroke:none;stroke-width:0.26458332"
           d="m 76.99587,252.14162 -11.10505,3.25251 0.33931,5.7307 6.38998,-0.3783 0.49205,8.31207 7.31443,-4.11365 6.64455,12.97181 -1.55582,-26.27951 z"
           id="path4558"
           inkscape:connector-curvature="0" />
        <g
           id="g4576"
           transform="rotate(2.2498734,-6587.9096,9134.7505)">
          <path
             id="path4556"
             transform="scale(0.26458333)"
             d="m -984.70508,-14.701172 v 54.91211 h 12.5332 l 25.68165,-54.91211 z"
             style="font-style:normal;font-variant:normal;font-weight:normal;font-stretch:normal;font-size:192px;line-height:1.25;font-family:'Alfa Slab One';-inkscape-font-specification:'Alfa Slab One';letter-spacing:0px;word-spacing:0px;fill:#000000;fill-opacity:1;stroke:none;stroke-width:0.99999994"
             inkscape:connector-curvature="0" />
          <path
             id="path4554"
             transform="scale(0.26458333)"
             d="m -939.04102,-14.701172 5.53516,37.248047 h 17.72852 c -4.88009,6.394589 -9.73185,13.522935 -14.55664,21.355469 l 6.50586,43.794922 40.17968,-39.171875 c 6.4511,-12.897937 12.95719,-24.259108 19.51953,-34.042969 v -29.183594 z"
             style="font-style:normal;font-variant:normal;font-weight:normal;font-stretch:normal;font-size:192px;line-height:1.25;font-family:'Alfa Slab One';-inkscape-font-specification:'Alfa Slab One';letter-spacing:0px;word-spacing:0px;fill:#000000;fill-opacity:1;stroke:none;stroke-width:0.99999994"
             inkscape:connector-curvature="0" />
        </g>
        <path
           style="font-style:normal;font-variant:normal;font-weight:normal;font-stretch:normal;font-size:192px;line-height:1.25;font-family:'Alfa Slab One';-inkscape-font-specification:'Alfa Slab One';letter-spacing:0px;word-spacing:0px;fill:#000000;fill-opacity:1;stroke:none;stroke-width:0.26458332"
           d="m 79.52373,267.89531 -6.55315,3.09902 -0.13936,12.23619 -4.87691,-0.0556 -0.0949,8.33073 22.55374,0.25688 0.0946,-8.3049 -2.30887,4.79336 z"
           id="path4542"
           inkscape:connector-curvature="0" />
        <g
           id="g4572"
           transform="rotate(-6.4380672,2207.4161,-2995.2199)">
          <path
             id="path4550"
             transform="scale(0.26458333)"
             d="m -944.74805,0 -18.80664,40.210938 h 19.16992 V 22.546875 h 2.98633 z"
             style="font-style:normal;font-variant:normal;font-weight:normal;font-stretch:normal;font-size:192px;line-height:1.25;font-family:'Alfa Slab One';-inkscape-font-specification:'Alfa Slab One';letter-spacing:0px;word-spacing:0px;fill:#800000;fill-opacity:1;stroke:none;stroke-width:0.99999994"
             inkscape:connector-curvature="0" />
          <path
             id="path4493"
             transform="scale(0.26458333)"
             d="m -936.64062,54.580078 c -0.40587,0.7153 -0.81133,1.416999 -1.2168,2.142578 -7.296,12.928 -13.37624,26.302954 -18.24024,40.126953 -4.736,13.824001 -7.10351,26.432221 -7.10351,37.824221 h 54.33594 c 0,-12.032 2.2407,-25.40695 6.7207,-40.126955 2.77943,-8.955943 5.96213,-17.746654 9.5332,-26.376953 l -36.69531,35.775388 z"
             style="font-style:normal;font-variant:normal;font-weight:normal;font-stretch:normal;font-size:192px;line-height:1.25;font-family:'Alfa Slab One';-inkscape-font-specification:'Alfa Slab One';letter-spacing:0px;word-spacing:0px;fill:#800000;fill-opacity:1;stroke:none;stroke-width:0.99999994"
             inkscape:connector-curvature="0" />
        </g>
      </g>
    </g>
  </g>
</svg>
